<svg width="15" height="15" viewBox="0 0 15 15" fill="none" xmlns="http://www.w3.org/2000/svg">
<g clip-path="url(#clip0_6965_11436)">
<path d="M8.76194 5.5076C8.67197 5.5076 8.58201 5.48129 8.50367 5.42804L7.34332 4.63856L6.18297 5.42804C6.02568 5.53576 5.8176 5.53453 5.66154 5.42437C5.50548 5.31544 5.43266 5.12082 5.47978 4.93538L5.84514 3.49535L4.75028 2.56082C4.60768 2.43842 4.55321 2.24258 4.6138 2.0651C4.67378 1.88701 4.83534 1.764 5.02262 1.75298L6.4088 1.67465L6.91308 0.300707C6.97857 0.119555 7.15115 -0.000396729 7.34332 -0.000396729C7.53549 -0.000396729 7.70807 0.119555 7.77417 0.300707L8.27846 1.67465L9.66464 1.75298C9.85191 1.764 10.0135 1.88701 10.0735 2.0651C10.1334 2.24258 10.0796 2.43842 9.93698 2.56082L8.84211 3.49596L9.20747 4.936C9.2546 5.12143 9.18177 5.31544 9.02571 5.42498C8.94615 5.48006 8.85374 5.5076 8.76194 5.5076Z" fill="#BE2BBB"/>
<path d="M14.2283 11.6275H11.3213V14.2285C11.3213 14.3877 11.2907 14.5468 11.2417 14.6875H14.2283C14.4792 14.6875 14.6873 14.4795 14.6873 14.2285V12.0865C14.6873 11.8356 14.4792 11.6275 14.2283 11.6275Z" fill="#BE2BBB"/>
<path d="M3.36551 10.4041H0.458512C0.207592 10.4041 -0.000488281 10.6122 -0.000488281 10.8631V14.2291C-0.000488281 14.48 0.207592 14.6881 0.458512 14.6881H3.44507C3.39611 14.5473 3.36551 14.3882 3.36551 14.2291V10.4041Z" fill="#BE2BBB"/>
<path d="M9.94347 6.73203H4.74147C4.4881 6.73203 4.28247 6.93766 4.28247 7.19103V14.229C4.28247 14.4824 4.4881 14.688 4.74147 14.688H9.94347C10.1968 14.688 10.4025 14.4824 10.4025 14.229V7.19103C10.4025 6.93766 10.1968 6.73203 9.94347 6.73203ZM7.80147 11.781C7.80147 12.0344 7.59584 12.24 7.34247 12.24C7.0891 12.24 6.88347 12.0344 6.88347 11.781V9.98113C6.78983 9.89729 6.73047 9.77489 6.73047 9.63903C6.73047 9.38566 6.9361 9.18003 7.18947 9.18003H7.34247C7.59584 9.18003 7.80147 9.38566 7.80147 9.63903V11.781Z" fill="#BE2BBB"/>
</g>
<defs>
<clipPath id="clip0_6965_11436">
<rect width="14.688" height="14.688" fill="white"/>
</clipPath>
</defs>
</svg>
